<svg xmlns="http://www.w3.org/2000/svg" fill="none" viewBox="0 0 96 96"><path stroke="#202020" stroke-width="2" d="M13 58.5V12a2 2 0 0 1 2-2h9.563a2 2 0 0 1 2 2v26.844l17.28-10.839a1 1 0 0 1 1.532.847v9.992l17.281-10.839a1 1 0 0 1 1.532.847v9.992l17.28-10.839a1 1 0 0 1 1.532.847V58.5"/><path stroke="#000" stroke-linejoin="round" stroke-width="2" d="M16.496 61.792H9l7.496 11.844L9 85.273h18.842l-8.307-9.143V54.52h56.12v21.61l-7.497 9.143H87l-7.496-11.637L87 61.792h-8.775M19.332 76.13h56.525M27.841 85.273V76.13M68.159 85.273V76.13"/><path fill="#000" d="M33.038 72H30.77v-8.01c0-.384.006-.792.018-1.224.012-.432.03-.834.054-1.206-.12.12-.27.264-.45.432-.168.168-.354.33-.558.486l-1.44 1.152-1.134-1.404 3.888-3.078h1.89V72zm12.803-7.362c0 .732-.054 1.464-.162 2.196a8.928 8.928 0 0 1-.558 2.052 5.71 5.71 0 0 1-1.098 1.71c-.468.492-1.068.882-1.8 1.17-.72.276-1.596.414-2.628.414-.24 0-.528-.012-.864-.036a5.332 5.332 0 0 1-.81-.108v-1.872c.468.132.984.198 1.548.198 1.08 0 1.92-.192 2.52-.576.6-.396 1.02-.93 1.26-1.602.252-.672.396-1.428.432-2.268h-.108a3.728 3.728 0 0 1-1.062 1.062c-.444.288-1.068.432-1.872.432-1.092 0-1.974-.348-2.646-1.044-.66-.696-.99-1.68-.99-2.952 0-1.38.384-2.46 1.152-3.24.768-.792 1.806-1.188 3.114-1.188.852 0 1.62.204 2.304.612.696.408 1.248 1.032 1.656 1.872.408.828.612 1.884.612 3.168zm-4.536-3.78c-.612 0-1.11.204-1.494.612-.384.408-.576 1.044-.576 1.908 0 .708.162 1.266.486 1.674.336.396.846.594 1.53.594.468 0 .876-.096 1.224-.288.348-.204.612-.462.792-.774a1.8 1.8 0 0 0 .288-.954 3.46 3.46 0 0 0-.252-1.296 2.552 2.552 0 0 0-.756-1.044c-.324-.288-.738-.432-1.242-.432zM56.178 72h-8.802v-1.674l3.276-3.312a40.322 40.322 0 0 0 1.584-1.692c.42-.468.726-.906.918-1.314.204-.42.306-.87.306-1.35 0-.588-.168-1.026-.504-1.314-.324-.3-.768-.45-1.332-.45-.54 0-1.044.114-1.512.342a7.044 7.044 0 0 0-1.458.936l-1.242-1.494a8.865 8.865 0 0 1 1.782-1.188c.672-.348 1.524-.522 2.556-.522.828 0 1.536.15 2.124.45a3.21 3.21 0 0 1 1.386 1.224c.324.516.486 1.11.486 1.782 0 .696-.138 1.338-.414 1.926-.276.576-.678 1.158-1.206 1.746-.516.576-1.134 1.2-1.854 1.872l-2.034 1.962v.108h5.94V72zm1.498-5.472c0-.744.048-1.476.144-2.196.108-.72.294-1.398.558-2.034a5.426 5.426 0 0 1 1.098-1.71c.468-.504 1.062-.894 1.782-1.17.732-.288 1.614-.432 2.646-.432.252 0 .54.012.864.036.324.024.594.06.81.108v1.872a5.692 5.692 0 0 0-1.548-.198c-1.08 0-1.92.198-2.52.594-.6.384-1.02.918-1.26 1.602-.24.672-.384 1.428-.432 2.268h.108c.252-.42.612-.774 1.08-1.062.468-.3 1.074-.45 1.818-.45 1.116 0 2.01.348 2.682 1.044.672.696 1.008 1.686 1.008 2.97 0 1.38-.384 2.46-1.152 3.24-.768.78-1.806 1.17-3.114 1.17a4.506 4.506 0 0 1-2.322-.612c-.684-.408-1.23-1.026-1.638-1.854-.408-.84-.612-1.902-.612-3.186zm4.536 3.798c.612 0 1.11-.204 1.494-.612.384-.42.576-1.062.576-1.926 0-.696-.168-1.242-.504-1.638-.336-.408-.84-.612-1.512-.612-.468 0-.876.102-1.224.306a2.18 2.18 0 0 0-.792.756c-.192.3-.288.612-.288.936 0 .444.084.882.252 1.314.168.42.414.774.738 1.062.336.276.756.414 1.26.414z"/></svg>