<svg xmlns="http://www.w3.org/2000/svg" fill="none" viewBox="0 0 96 96"><path stroke="#000" stroke-width="2" d="M48 67v15a2 2 0 0 0 2 2h33a2 2 0 0 0 2-2V35.828a2 2 0 0 0-2-2H37a2 2 0 0 0-2 2V82a2 2 0 0 1-2 2H12a2 2 0 0 1-2-2V13a2 2 0 0 1 2-2h45.432a2 2 0 0 1 2 2v20.828"/><path fill="#000" d="M21.5 23h3v3h-3zM46.5 45h3v3h-3zM21.5 34h3v3h-3zM46.5 56h3v3h-3zM21.5 45h3v3h-3zM21.5 67h3v3h-3zM21.5 56h3v3h-3zM33.5 23h3v3h-3zM58.5 45h3v3h-3zM58.5 56h3v3h-3zM58.5 67h3v3h-3zM45.5 23h3v3h-3zM70.5 45h3v3h-3zM70.5 56h3v3h-3zM70.5 67h3v3h-3z"/></svg>