<svg xmlns="http://www.w3.org/2000/svg" fill="none" viewBox="0 0 96 96"><circle cx="35.5" cy="47.5" r="11.5" stroke="#000" stroke-width="2"/><path stroke="#000" stroke-linejoin="round" stroke-width="2" d="M10 88l3.74-17.657A8 8 0 0 1 21.564 64h29.601a8 8 0 0 1 7.802 6.23L63 88"/><path stroke="#000" stroke-linejoin="round" stroke-width="2" d="M41 73h12v7H41z"/><path stroke="#000" stroke-width="2" d="M14.167 63A36.871 36.871 0 0 1 11 48c0-20.434 16.566-37 37-37s37 16.566 37 37c0 14.306-8.119 26.715-20 32.872"/><path stroke="#000" stroke-width="2" d="M29.594 33.5C32.643 20.272 39.736 11 48 11c11.046 0 20 16.566 20 37 0 9.158-1.798 17.539-4.778 24M11 48h9.5m30 0H85M48 11v25.5M48 57v3.5M16 30h64M61 66h19"/></svg>