<svg width="140" height="40" viewBox="0 0 140 40" fill="none" xmlns="http://www.w3.org/2000/svg">
<path d="M140 5.55298H0V40H140V5.55298Z" fill="#F0AB00"/>
<path d="M140 0H0V5.556H140V0Z" fill="#D52B1E"/>
<path d="M20.007 35.3161C12.719 35.3161 6.80902 30.9151 6.80902 26.4651C6.80902 20.7931 12.718 17.0071 20.007 17.0071C27.296 17.0071 33.205 20.7931 33.205 26.4651C33.205 30.9151 27.296 35.3161 20.007 35.3161Z" fill="white"/>
<path d="M36.684 30.5151C38.396 30.8221 40.646 30.9581 41.853 29.5171C42.985 28.1871 42.796 26.3031 42.884 24.5541C42.909 20.0971 42.858 15.5831 42.695 11.1121H48.502C48.339 15.7791 48.276 20.2081 48.326 24.9111C48.326 27.3861 48.44 29.9601 46.806 31.7941C44.807 34.1461 41.828 34.6761 38.723 34.6641L38.069 34.6151L36.684 30.5151Z" fill="#002664"/>
<path d="M127.565 33.3361C124.838 29.1371 121.721 25.1021 118.628 21.0631L118.615 21.0741C118.577 25.1381 118.653 29.2851 118.791 33.3361H113.561C113.825 25.9971 113.801 18.5001 113.549 11.1121H118.25C120.991 15.2981 124.121 19.3881 127.176 23.4151C127.201 19.3271 127.164 15.1511 127.013 11.1121H132.217C132.192 13.5501 132.067 16.0401 132.067 18.4411C132.016 23.3781 132.054 28.4231 132.217 33.3361H127.565Z" fill="#002664"/>
<path d="M84.488 33.336C84.286 27.351 84.274 21.266 84.387 15.246H84.388C86.248 15.234 88.221 15.332 90.043 15.444V11.113H73.129V15.444C74.951 15.333 76.925 15.234 78.786 15.246C78.898 21.266 78.886 27.351 78.685 33.336H84.488Z" fill="#002664"/>
<path d="M101.02 33.984C99.639 33.993 98.258 33.831 97.032 33.439C95.021 32.824 93.236 31.247 92.506 29.277C91.727 27.442 91.954 25.103 91.916 23.096C91.941 19.119 91.891 15.09 91.753 11.113H97.472C97.321 15.595 97.296 20.228 97.333 24.635C97.384 26.272 97.384 27.934 98.528 29.105C99.147 29.768 100.085 30.054 101.019 30.043C101.954 30.053 102.892 29.768 103.511 29.105C104.655 27.934 104.655 26.271 104.705 24.635C104.743 20.228 104.718 15.595 104.567 11.113H110.287C110.148 15.091 110.099 19.119 110.123 23.096C110.086 25.103 110.312 27.442 109.533 29.277C108.804 31.247 107.019 32.824 105.007 33.439C103.782 33.831 102.401 33.992 101.02 33.984Z" fill="#002664"/>
<path d="M73.248 18.7049C72.507 15.9969 70.634 13.3609 67.981 11.9209C66.365 10.9889 64.305 10.5219 62.261 10.5269C60.216 10.5219 58.156 10.9889 56.541 11.9209C53.888 13.3609 52.015 15.9969 51.274 18.7049C50.47 22.1029 50.734 26.0429 52.656 28.8629C53.964 30.9809 56.013 32.5819 58.313 33.3449C59.591 33.7709 60.93 33.9789 62.261 33.9779C62.266 33.9779 62.271 33.9789 62.277 33.9779C63.602 33.9789 64.936 33.7699 66.21 33.3449C68.51 32.5819 70.559 30.9809 71.866 28.8629C73.79 26.0429 74.054 22.1039 73.248 18.7049ZM67.905 23.6549C67.78 25.4649 67.277 27.1399 66.107 28.5309C65.158 29.6649 63.742 30.1859 62.262 30.1859C60.781 30.1859 59.365 29.6649 58.416 28.5309C57.247 27.1399 56.745 25.4649 56.619 23.6549C56.468 20.7869 56.632 17.8809 58.592 15.7869C59.547 14.7439 60.885 14.3039 62.262 14.3029C63.638 14.3049 64.977 14.7439 65.931 15.7869C67.893 17.8809 68.056 20.7869 67.905 23.6549Z" fill="#002664"/>
<path d="M24.589 17.431V8.88899C22.262 8.86699 19.102 9.27799 17.006 12.375C16.065 13.856 15.478 15.546 15.212 17.495C14.999 17.549 14.781 17.597 14.574 17.658C9.91101 19.042 6.66101 22.235 6.66101 26.465C6.66101 29.892 10.131 33.289 15.041 34.713V35.555H24.939V34.721C29.866 33.302 33.349 29.898 33.349 26.464C33.35 21.985 29.702 18.667 24.589 17.431ZM8.81501 21.973H11.754C11.119 22.992 10.692 24.137 10.531 25.363H7.37301C7.56001 24.112 8.05901 22.972 8.81501 21.973ZM7.28301 26.466C7.28301 26.304 7.29601 26.145 7.30601 25.985H10.476C10.467 26.146 10.45 26.303 10.45 26.466C10.45 27.489 10.642 28.468 10.98 29.383H8.16901C7.59901 28.454 7.28301 27.466 7.28301 26.466ZM15.041 34.103C12.236 33.27 9.94101 31.778 8.59401 30.005H11.23C12.018 31.713 13.36 33.138 15.041 34.097V34.103ZM15.041 33.395C13.705 32.554 12.633 31.381 11.943 30.005H15.041V33.395ZM15.041 29.383H11.663C11.3 28.474 11.092 27.494 11.092 26.466C11.092 26.304 11.108 26.145 11.118 25.985H15.041V29.383ZM15.041 25.363H11.18C11.355 24.126 11.816 22.977 12.504 21.973H15.042V25.363H15.041ZM20.006 34.687C17.148 34.687 16.137 30.812 16.137 26.031C16.137 21.252 17.087 17.377 20.006 17.377C22.925 17.377 23.875 21.252 23.875 26.031C23.875 30.812 22.864 34.687 20.006 34.687ZM31.209 21.973C31.962 22.972 32.46 24.111 32.646 25.363H29.482C29.321 24.138 28.895 22.992 28.259 21.973H31.209ZM24.94 21.973H27.508C28.196 22.976 28.658 24.126 28.833 25.363H24.94V21.973ZM24.94 25.985H28.893C28.903 26.145 28.919 26.303 28.919 26.466C28.919 27.494 28.711 28.474 28.348 29.383H24.94V25.985ZM24.94 30.005H28.069C27.373 31.39 26.29 32.57 24.94 33.411V30.005ZM24.952 34.108C26.641 33.147 27.99 31.719 28.781 30.005H31.417C30.066 31.781 27.766 33.277 24.952 34.108ZM29.032 29.383C29.369 28.467 29.562 27.488 29.562 26.466C29.562 26.304 29.545 26.146 29.536 25.985H32.713C32.723 26.144 32.729 26.303 32.729 26.466C32.729 27.466 32.412 28.455 31.843 29.383H29.032Z" fill="#002664"/>
<path d="M20.387 11.209C19.941 11.209 19.58 11.571 19.58 12.016C19.58 12.462 19.941 12.823 20.387 12.823C20.833 12.823 21.194 12.462 21.194 12.016C21.194 11.57 20.832 11.209 20.387 11.209ZM20.386 12.275C20.237 12.275 20.117 12.155 20.117 12.007C20.117 11.859 20.237 11.738 20.386 11.738C20.534 11.738 20.655 11.859 20.655 12.007C20.655 12.155 20.534 12.275 20.386 12.275Z" fill="white"/>
</svg>
