<svg xmlns="http://www.w3.org/2000/svg" fill="none" viewBox="0 0 96 96"><circle cx="26" cy="48" r="18" stroke="#000" stroke-width="2"/><path stroke="#000" stroke-width="2" d="M24 30h8c9.941 0 18 8.059 18 18s-8.059 18-18 18h-8"/><path stroke="#000" stroke-width="2" d="M36 30h8c9.941 0 18 8.059 18 18s-8.059 18-18 18h-8"/><path stroke="#000" stroke-width="2" d="M54 30h8c9.941 0 18 8.059 18 18s-8.059 18-18 18h-8"/><path stroke="#000" stroke-width="2" d="M30 30h8c9.941 0 18 8.059 18 18s-8.059 18-18 18h-8"/><path stroke="#000" stroke-width="2" d="M48 30h8c9.941 0 18 8.059 18 18s-8.059 18-18 18h-8"/><path stroke="#000" stroke-width="2" d="M42 30h8c9.941 0 18 8.059 18 18s-8.059 18-18 18h-8"/><path stroke="#000" stroke-width="2" d="M60 30h8c9.941 0 18 8.059 18 18s-8.059 18-18 18h-8"/><path stroke="#000" stroke-linejoin="round" stroke-width="2" d="M30.923 40.615h-6.154a3.692 3.692 0 0 0-3.692 3.692v0A3.692 3.692 0 0 0 24.769 48h2.462a3.692 3.692 0 0 1 3.692 3.692v0a3.692 3.692 0 0 1-3.692 3.693h-6.154M26 36.923v3.692M26 55.385v3.692"/></svg>